<?xml version="1.0" encoding="UTF-8" standalone="no"?>
<svg
        viewBox="0 0 297.47 95.85"
        version="1.1"
        id="svg17"
        sodipodi:docname="Jet_Lag,_The_Game_Logo.svg"
        xml:space="preserve"
        inkscape:version="1.3.2 (091e20e, 2023-11-25, custom)"
        xmlns:inkscape="http://www.inkscape.org/namespaces/inkscape"
        xmlns:sodipodi="http://sodipodi.sourceforge.net/DTD/sodipodi-0.dtd"
        xmlns="http://www.w3.org/2000/svg"
><sodipodi:namedview
     id="namedview17"
     pagecolor="#ffffff"
     bordercolor="#666666"
     borderopacity="1.0"
     inkscape:showpageshadow="2"
     inkscape:pageopacity="0.0"
     inkscape:pagecheckerboard="0"
     inkscape:deskcolor="#d1d1d1"
     inkscape:zoom="2.3509215"
     inkscape:cx="109.10615"
     inkscape:cy="35.517988"
     inkscape:window-width="1920"
     inkscape:window-height="1177"
     inkscape:window-x="-8"
     inkscape:window-y="-8"
     inkscape:window-maximized="1"
     inkscape:current-layer="g17" />
    <defs
            id="defs1"><clipPath
       id="d"><path
         d="M174.82 54.9V24.2c0-2.01-1.07-3.87-2.81-4.87L145.42 3.98a5.61 5.61 0 0 0-5.63 0L113.2 19.33a5.627 5.627 0 0 0-2.81 4.87v30.7c0 2.01 1.07 3.87 2.81 4.87l26.59 15.35a5.61 5.61 0 0 0 5.63 0l26.59-15.35a5.627 5.627 0 0 0 2.81-4.87"
         style="stroke-width:0;fill:none"
         id="path1" /></clipPath>
        <style
                id="style1">.g,.h,.i,.j,.k{stroke-width:0}.h{fill:#202f40}.g{fill:#f57a3c}.i{fill:#eb3539}.j{fill:#ffbf40}.k{fill:#f0f0f0}</style></defs>
    <g
            id="g17"><path
       class="k"
       d="M268.41 7.68H16.8c-4.63 0-8.85 1.89-11.88 4.93A16.748 16.748 0 0 0 0 24.48v28.95c0 4.63 1.89 8.85 4.93 11.88 3.03 3.04 7.25 4.93 11.88 4.93h251.61c4.63 0 8.85-1.89 11.88-4.93 3.04-3.03 4.93-7.25 4.93-11.88V24.48c0-4.63-1.89-8.85-4.93-11.88a16.756 16.756 0 0 0-11.88-4.93"
       id="path2" />
        <path
                d="M268.41 10.9H16.8c-7.49 0-13.58 6.09-13.58 13.58v28.95c0 7.49 6.09 13.58 13.58 13.58h251.61c7.49 0 13.58-6.09 13.58-13.58V24.48c0-7.49-6.09-13.58-13.58-13.58"
                style="fill:#202f40;fill-rule:evenodd;stroke-width:0"
                id="path3"/>
        <path
                class="k"
                d="M173.62 16.54 147.03 1.19C145.66.4 144.13 0 142.61 0s-3.06.4-4.43 1.19l-26.59 15.35a8.849 8.849 0 0 0-4.43 7.67v30.7c0 3.16 1.69 6.08 4.43 7.66l26.59 15.35c1.37.79 2.9 1.19 4.43 1.19s3.06-.4 4.43-1.19l26.59-15.35a8.845 8.845 0 0 0 4.43-7.66v-30.7c0-3.16-1.69-6.09-4.43-7.67Z"
                id="path4"/>
        <g
                style="clip-path:url(#d)"
                clip-path="url(#d)"
                id="g13"><path
         class="h"
         d="M147.03 36.24h-8.85l-27.79 21.91 32.22 18.6 32.21-18.6-27.79-21.91"
         id="path5" />
            <path
                    class="i"
                    d="M151.46 26.47v9.77c0 7.19 5.85 13.05 13.05 13.05h10.31v4.43h-10.31c-9.64 0-17.48-7.84-17.48-17.48V25.93l4.43.54"
                    id="path6"/>
            <path
                    class="j"
                    d="M155.89 28.01v8.23c0 4.75 3.86 8.62 8.62 8.62h10.31v4.43h-10.31c-7.19 0-13.05-5.85-13.05-13.05v-9.77l4.43 1.54"
                    id="path7"/>
            <path
                    class="j"
                    d="M160.32 29.67v6.58c0 2.31 1.88 4.19 4.19 4.19h10.31v4.43h-10.31c-4.75 0-8.62-3.87-8.62-8.62v-8.23l4.43 1.65"
                    id="path8"/>
            <path
                    class="h"
                    d="M164.51 53.72c-9.64 0-17.48-7.84-17.48-17.48V25.93l-4.43-1.66-4.43 1.66v10.31c0 9.64-7.84 17.48-17.48 17.48h-10.31v4.43h10.31c12.08 0 21.91-9.83 21.91-21.91 0 12.08 9.83 21.91 21.91 21.91h10.31v-4.43h-10.31Z"
                    id="path9"/>
            <path
                    class="i"
                    d="M133.75 26.47v9.77c0 7.19-5.85 13.05-13.05 13.05h-10.31v4.43h10.31c9.64 0 17.48-7.84 17.48-17.48V25.93l-4.43.54"
                    id="path10"/>
            <path
                    class="j"
                    d="M129.32 28.01v8.23c0 4.75-3.87 8.62-8.62 8.62h-10.31v4.43h10.31c7.19 0 13.05-5.85 13.05-13.05v-9.77l-4.43 1.54"
                    id="path11"/>
            <path
                    class="g"
                    d="M151.46 26.47v9.77c0 7.19 5.85 13.05 13.05 13.05h10.31v-4.43h-10.31c-4.75 0-8.62-3.87-8.62-8.62v-8.23l-4.43-1.54M133.75 26.47l-4.43 1.54v8.23c0 4.75-3.87 8.62-8.62 8.62h-10.31v4.43h10.31c7.19 0 13.05-5.85 13.05-13.05v-9.77"
                    id="path12"/>
            <path
                    class="j"
                    d="M124.89 29.67v6.58c0 2.31-1.88 4.19-4.19 4.19h-10.31v4.43h10.31c4.75 0 8.62-3.87 8.62-8.62v-8.23l-4.43 1.65Z"
                    id="path13"/></g>
        <path
                class="h"
                d="M145.83 21.31v-8.93c0-3.41-1.36-6.29-3.22-6.29s-3.22 2.88-3.22 6.29v8.93l-14.5 8.36v3.73l14.5-3.22 1.23 2.76h3.98l1.23-2.76 14.5 3.22v-3.73l-14.5-8.36Z"
                id="path14"/>
        <path
                class="k"
                d="M84.72 58.15V26.94h7.09v-7.2H69.08v7.2h7.15v31.21h8.48Zm-19.6-7.2H52.85v-8.8h9.55v-7.2h-9.55v-8h12.27v-7.2H44.37v38.41h20.75v-7.2ZM30.31 19.74v28.01c0 2.56-1.01 3.68-3.04 3.68-1.87 0-2.99-.8-2.99-3.68v-4.53h-7.95v7.15c0 5.28 4.27 8.32 10.94 8.32s11.52-3.09 11.52-11.52V19.75h-8.48ZM269.2 58.15V37.29h-11.36v7.2h3.41v4.32c0 1.81-1.28 2.61-3.41 2.61-2.35 0-3.47-.8-3.47-2.61V29.07c0-1.81 1.12-2.61 3.47-2.61 2.13 0 3.41.8 3.41 2.61v4.53h7.95v-6.08c0-5.28-4.43-8.32-11.36-8.32-7.31 0-11.95 3.04-11.95 8.32v22.83c0 5.28 4 8.32 10.35 8.32 3.15 0 5.71-.8 7.41-2.35l1.17 1.81h4.37Zm-39.76-28.7 2.83 13.71h-5.65l2.83-13.71Zm-5.92 28.7 1.49-7.25h8.85l1.49 7.25h8.48l-9.28-38.41h-10.19l-9.33 38.41h8.48Zm-10.35-7.2h-12.38V19.74h-8.48v38.41h20.86v-7.2Z"
                id="path15"/>
        <path
                class="j"
                d="m 297.46255,79.72347 -1.19881,-16.892362 a 4.91,8.4510355 86.0432 0 0 -2.67243,-3.245817 4.878,8.3959575 86.0432 0 0 -5.9797,-1.005191 l -153.0767,10.686825 a 4.835,8.3219464 86.0432 0 0 -7.9557,5.407587 l 1.1988,16.892354 a 4.91,8.4510355 86.0432 0 0 2.67245,3.245826 c 1.60865,0.795091 3.78136,1.151454 5.97968,1.005182 L 289.50685,85.131048 a 4.835,8.3219464 86.0432 0 0 7.95569,-5.407577 z"
                id="path16"/>
        <path
                style="fill:#202f40;fill-opacity:1;stroke-width:0.999999"
                d="m 251.16926,83.285524 c -1.77512,-0.508657 -3.044,-2.015773 -3.67829,-4.368922 -0.38754,-1.437776 -0.71763,-6.356167 -0.51805,-7.720252 0.4764,-3.257127 2.02861,-4.957652 4.68419,-5.131724 2.23232,-0.146328 3.86184,0.899457 4.80025,3.08069 0.59915,1.392667 0.73592,2.253537 0.91485,5.75914 0.14255,2.79146 0.13972,3.277818 -0.0234,4.021461 -0.41067,1.869212 -1.25068,3.18902 -2.49279,3.916648 -0.78671,0.460869 -2.78559,0.701055 -3.68633,0.442953 z m 1.92354,-3.395867 c 0.22258,-0.09591 0.54153,-0.404495 0.7088,-0.685876 0.52344,-0.880498 0.55716,-1.345051 0.33904,-4.672302 l -0.19878,-3.032734 -0.38018,-0.824229 c -0.30797,-0.66774 -0.47202,-0.869789 -0.86391,-1.064209 -0.64003,-0.317543 -1.06928,-0.276852 -1.6502,0.156466 -0.36228,0.270223 -0.53803,0.53802 -0.71809,1.094226 -0.2265,0.69959 -0.23114,0.877391 -0.093,3.551817 0.20291,3.929055 0.5463,5.073269 1.64678,5.487266 0.56635,0.213052 0.69324,0.211965 1.20956,-0.01051 z m -117.41878,4.183953 -0.46716,-6.677294 -1.69918,0.03886 -1.69919,0.03886 -0.10413,-1.588561 -0.10412,-1.588571 4.99617,-0.365183 4.9962,-0.36528 0.1087,1.658421 0.1087,1.658422 -1.66357,0.149211 -1.66363,0.149211 0.40859,6.681133 0.4086,6.681142 -1.57923,0.103523 -1.57925,0.103513 z m 7.82335,-2.216991 -0.54905,-8.376107 1.58148,-0.103664 1.58149,-0.103664 0.20826,3.177154 0.20827,3.177133 1.97686,-0.129582 1.97686,-0.129582 -0.20825,-3.177135 -0.20825,-3.177153 1.63797,-0.107369 1.63796,-0.107368 0.54905,8.376108 0.54905,8.376108 -1.63797,0.107368 -1.63796,0.107369 -0.2272,-3.465982 -0.2272,-3.465975 -1.97685,0.129583 -1.97688,0.129584 0.22718,3.465972 0.22719,3.465984 -1.58148,0.103665 -1.58147,0.103664 z m 12.53897,-0.821923 -0.54904,-8.376109 4.17966,-0.273975 4.17967,-0.273976 0.10885,1.660782 0.10884,1.660772 -2.54169,0.166607 -2.54169,0.166606 0.0993,1.513309 0.0993,1.51333 2.2336,-0.107141 2.23359,-0.107141 0.14314,1.694791 0.14312,1.694792 -2.26286,0.148329 -2.26286,0.148329 0.11832,1.805203 0.1183,1.805192 2.54166,-0.166605 2.54169,-0.166606 0.10885,1.660771 0.10887,1.660791 -4.17968,0.273976 -4.17964,0.273975 z m 14.68536,-0.961627 -0.54917,-8.377886 1.58037,-0.103589 1.58036,-0.103588 0.46706,6.677301 0.46704,6.677311 2.54642,-0.09443 2.54641,-0.09443 0.10413,1.588573 0.10412,1.58857 -4.14892,0.310042 -4.14894,0.31004 z m 9.60185,-0.63039 -0.54905,-8.376109 4.18337,-0.274217 4.18335,-0.274217 0.0744,1.626778 0.0744,1.626769 -2.53694,0.238885 -2.53693,0.238786 0.0646,1.479362 0.0646,1.479369 2.29403,-0.111006 2.294,-0.111104 0.10885,1.66078 0.10886,1.660783 -2.28842,0.189274 -2.28843,0.189177 0.14746,1.76402 0.14746,1.764014 2.54642,-0.09443 2.5464,-0.09443 0.13849,1.622575 0.13849,1.622575 -4.18336,0.274217 -4.18335,0.274218 z m 9.12502,7.671832 c -0.005,-0.0778 0.24615,-1.38332 0.5583,-2.901065 0.3122,-1.517747 1.02329,-5.008464 1.58025,-7.75715 0.55695,-2.748686 1.06871,-5.26235 1.13726,-5.585922 l 0.12461,-0.58831 1.56892,-0.142807 1.56893,-0.142807 0.72439,2.168091 c 0.39841,1.19244 1.64549,4.844286 2.7713,8.115181 1.12582,3.270904 2.05042,6.000429 2.0547,6.065617 0.004,0.06517 -0.75081,0.168236 -1.67793,0.229007 l -1.68569,0.110493 -0.44561,-1.421155 -0.44562,-1.421148 -1.97711,0.129598 c -1.48124,0.09709 -1.98598,0.175598 -2.01248,0.313212 -0.0194,0.100947 -0.13375,0.761142 -0.254,1.467007 l -0.21863,1.283402 -1.68115,0.110203 c -1.0225,0.06703 -1.68478,0.05479 -1.69043,-0.03133 z m 6.70697,-6.717461 c -0.0143,-0.216085 -1.26812,-4.238641 -1.34982,-4.330071 -0.0309,-0.03457 -0.2092,0.818119 -0.39621,1.894839 -0.18705,1.076721 -0.37373,2.139348 -0.4148,2.361417 l -0.0747,0.403741 1.12377,-0.07366 c 0.83053,-0.05445 1.12063,-0.121261 1.11178,-0.256266 z m 5.85708,-2.376078 -0.54906,-8.376111 2.87501,-0.188455 c 1.68036,-0.110148 3.12814,-0.137912 3.48418,-0.06669 1.78661,0.356991 2.93626,1.560441 3.65204,3.822956 0.30297,0.957643 0.34862,1.309796 0.52908,4.080891 0.21009,3.220189 0.16457,4.134311 -0.26974,5.470756 -0.28619,0.880525 -0.96968,1.907847 -1.56389,2.350542 -1.01827,0.75863 -1.56738,0.886256 -4.69526,1.091286 l -2.91332,0.190967 z m 6.1512,4.31056 c 0.18202,-0.15715 0.43268,-0.559347 0.55702,-0.893766 0.21879,-0.588344 0.21921,-0.713223 0.0131,-3.857375 -0.20304,-3.097408 -0.22682,-3.277137 -0.5083,-3.843419 -0.42508,-0.855063 -0.83791,-1.045841 -2.22173,-1.026701 l -1.16179,0.01609 0.32608,4.974652 c 0.17934,2.736064 0.36749,5.022554 0.41814,5.081094 0.1816,0.20996 2.22657,-0.146943 2.57747,-0.450535 z m 5.82294,-5.095463 -0.54906,-8.376107 4.17967,-0.273975 4.17965,-0.273975 0.10869,1.658066 0.10871,1.658066 -2.56738,0.207263 -2.56738,0.207262 0.0647,1.47937 0.0646,1.47936 2.29399,-0.111104 2.29402,-0.111105 0.10884,1.660782 0.10885,1.660781 -2.28841,0.189276 -2.28841,0.189273 0.14746,1.764012 0.14746,1.764003 2.57249,-0.129657 2.57245,-0.129648 0.10869,1.658056 0.10869,1.658075 -4.17963,0.273975 -4.17967,0.273975 z m 9.94081,-0.651615 -0.54906,-8.37611 2.96546,-0.192398 c 2.21668,-0.144313 3.14775,-0.150106 3.6876,-0.02522 1.42914,0.330562 2.44666,1.153834 3.0453,2.463988 0.39934,0.873936 0.62686,3.056002 0.4405,4.224664 -0.13975,0.876332 -0.75638,2.055487 -1.28483,2.456875 -0.17149,0.13028 -0.30588,0.316368 -0.29862,0.413561 0.007,0.09721 0.66916,1.627347 1.47083,3.40035 0.8017,1.773003 1.4593,3.248996 1.46132,3.279981 0.002,0.03102 -0.78842,0.09026 -1.75656,0.131803 l -1.76029,0.07542 -1.25133,-2.96374 -1.25136,-2.963727 -0.7624,-0.02251 c -0.41935,-0.01238 -0.78179,0.0058 -0.80543,0.0407 -0.0237,0.03477 0.0478,1.449643 0.15888,3.144124 l 0.20196,3.08086 -1.58149,0.103664 -1.58151,0.103665 z m 5.69997,-1.833706 c 0.51692,-0.222567 0.81452,-0.89205 0.75929,-1.70798 -0.0929,-1.372776 -0.63781,-1.775861 -2.38868,-1.767219 l -1.2416,0.0061 0.12445,1.897851 0.12444,1.897861 1.10134,-0.07289 c 0.60576,-0.04006 1.29012,-0.15438 1.52085,-0.253625 z m 6.10411,1.050254 -0.54968,-8.385745 3.22289,-0.158902 c 2.96298,-0.146027 3.28519,-0.137102 3.99545,0.111867 0.98252,0.344388 1.88778,1.219731 2.24384,2.169641 0.32751,0.873874 0.43536,2.464561 0.22717,3.359946 -0.0853,0.368297 -0.36225,0.967422 -0.61526,1.331395 l -0.46001,0.661775 0.51471,0.380974 c 0.94272,0.697758 1.42959,1.788227 1.53819,3.44514 0.15999,2.440706 -0.77228,4.056257 -2.77293,4.805206 -0.52317,0.195845 -1.45144,0.31046 -3.74544,0.462438 l -3.04989,0.201902 z m 6.28395,4.308586 c 1.05576,-0.739064 0.76185,-2.736861 -0.45319,-3.080634 -0.23433,-0.06627 -0.89629,-0.0901 -1.47102,-0.05287 l -1.04495,0.06781 0.11972,1.825936 0.11971,1.825948 1.16491,-0.153016 c 0.76943,-0.101019 1.30069,-0.24808 1.56488,-0.433039 z m -0.90157,-6.821448 c 0.49519,-0.28214 0.70196,-0.722863 0.65748,-1.401456 -0.071,-1.081256 -0.76851,-1.486703 -2.38833,-1.388061 l -0.76271,0.04701 0.0994,1.516362 0.0994,1.516372 1.00932,-0.06617 c 0.55512,-0.0364 1.13358,-0.13698 1.28549,-0.223511 z m 16.90906,9.364682 c -9.9e-4,-0.05968 0.76223,-3.878905 1.69848,-8.48717 l 1.7023,-8.378643 1.56481,-0.141345 1.56481,-0.141348 1.64287,4.789719 c 0.90357,2.634336 2.11266,6.162135 2.68685,7.839558 0.57422,1.677412 1.11021,3.224992 1.19109,3.439046 l 0.14706,0.389208 -1.73034,0.113426 -1.73036,0.113428 -0.42991,-1.385911 -0.42995,-1.38592 -1.98893,0.0908 -1.98892,0.09079 -0.25689,1.470497 -0.25687,1.470497 -1.69118,0.110852 c -0.93012,0.06097 -1.69284,0.06198 -1.69493,0.0023 z m 6.69388,-6.965402 c -0.13601,-0.45558 -1.14666,-3.708687 -1.24283,-4.000308 -0.0358,-0.108803 -0.0856,-0.167612 -0.11088,-0.130731 -0.0669,0.09828 -0.79649,4.276168 -0.7838,4.488702 0.008,0.132445 0.30994,0.160979 1.13256,0.107058 l 1.12176,-0.07352 z m 5.8639,-2.172552 -0.54981,-8.387564 3.30792,-0.160108 c 3.03932,-0.147168 3.36247,-0.1384 3.9802,0.106478 1.85083,0.733959 2.75572,2.192016 2.9178,4.701465 0.11602,1.784787 -0.10159,2.71047 -0.8783,3.748353 -0.31716,0.423843 -0.62342,0.773696 -0.68054,0.777438 -0.057,0.0038 -0.0995,0.07375 -0.0941,0.155595 0.005,0.08186 0.66701,1.608725 1.47034,3.393093 0.80332,1.784377 1.46248,3.272943 1.46479,3.307946 0.003,0.03504 -0.77799,0.114959 -1.73394,0.177622 l -1.73812,0.11393 -1.26198,-2.999307 -1.26197,-2.999287 -0.77371,-0.02178 c -0.42553,-0.01197 -0.79306,0.0066 -0.8167,0.04144 -0.0238,0.03477 0.0479,1.44964 0.15887,3.144123 l 0.20196,3.080871 -1.5815,0.103663 -1.58149,0.103664 z m 5.82181,-1.877702 c 0.51421,-0.319551 0.69676,-0.790798 0.64027,-1.652687 -0.0912,-1.39158 -0.6148,-1.775851 -2.40764,-1.766997 l -1.22472,0.006 0.12445,1.89785 0.12443,1.89786 1.18975,-0.07797 c 0.76194,-0.04994 1.32055,-0.15935 1.55353,-0.304074 z m 6.04015,1.111637 -0.54906,-8.376108 2.87501,-0.188453 c 1.68036,-0.11015 3.12813,-0.137912 3.48419,-0.06669 1.83409,0.366485 3.0499,1.70923 3.73766,4.127945 0.36789,1.293815 0.69985,6.404803 0.50373,7.745188 -0.35904,2.445315 -1.48842,4.016122 -3.29377,4.581146 -0.32488,0.101625 -1.85459,0.267709 -3.39937,0.368969 l -2.80867,0.184107 z m 6.14899,4.312483 c 0.18325,-0.158213 0.43487,-0.561267 0.55924,-0.895685 0.21878,-0.588345 0.21919,-0.713224 0.0132,-3.857378 -0.20303,-3.097409 -0.22681,-3.277136 -0.50832,-3.843418 -0.42506,-0.855065 -0.83788,-1.045842 -2.2217,-1.026703 l -1.1618,0.01609 0.33364,5.089865 0.33364,5.089846 1.15953,-0.142449 c 0.85114,-0.104579 1.24814,-0.218972 1.49268,-0.430121 z"
                id="path18"/></g></svg>
